<svg width="17" height="17" viewBox="0 0 17 17" fill="none" xmlns="http://www.w3.org/2000/svg">
<path d="M6.62242 10.5242C9.44536 10.5242 11.8282 10.9729 11.8282 12.7078C11.8282 14.4413 9.43011 14.875 6.62242 14.875L6.43065 14.8743C3.69239 14.8539 1.41664 14.3869 1.41664 12.6915C1.41664 10.9579 3.81472 10.5242 6.62242 10.5242ZM11.0285 9.47977C12.1021 9.45941 13.2568 9.60398 13.683 9.70579C14.5868 9.87888 15.1808 10.2311 15.4268 10.745C15.6355 11.1658 15.6355 11.6545 15.4268 12.0753C15.0505 12.8708 13.8362 13.1267 13.3642 13.1925C13.2665 13.2061 13.1882 13.1246 13.1986 13.0283C13.4398 10.8237 11.522 9.77842 11.0257 9.53814C11.0049 9.52661 11.0001 9.51032 11.0022 9.49946C11.0036 9.49267 11.0126 9.48181 11.0285 9.47977ZM6.62242 2.125C8.53465 2.125 10.0671 3.62571 10.0671 5.49837C10.0671 7.37104 8.53465 8.87175 6.62242 8.87175C4.71088 8.87175 3.17778 7.37104 3.17778 5.49837C3.17778 3.62571 4.71088 2.125 6.62242 2.125ZM11.2156 2.68843C13.0627 2.68843 14.5127 4.38937 14.0185 6.28375C13.6851 7.56048 12.4785 8.40823 11.1339 8.37362C10.9987 8.3709 10.8663 8.35801 10.7374 8.33696C10.6445 8.32067 10.5974 8.21818 10.6508 8.14216C11.1637 7.40301 11.4561 6.51317 11.4561 5.55953C11.4561 4.56313 11.1373 3.63528 10.5822 2.87305C10.5641 2.84929 10.551 2.81332 10.569 2.78549C10.5829 2.76377 10.6106 2.75155 10.6362 2.74612C10.8234 2.70879 11.0153 2.68843 11.2156 2.68843Z" fill="black"/>
</svg>
