<svg width="17" height="17" viewBox="0 0 17 17" fill="none" xmlns="http://www.w3.org/2000/svg">
<path d="M14.875 6.90624H14.3192C14.1857 5.45518 13.5149 4.10635 12.4383 3.12429C11.3618 2.14223 9.95719 1.59781 8.5 1.59781C7.04281 1.59781 5.6382 2.14223 4.56165 3.12429C3.48511 4.10635 2.81431 5.45518 2.68082 6.90624H2.125C1.9841 6.90624 1.84898 6.96221 1.74935 7.06184C1.64972 7.16147 1.59375 7.2966 1.59375 7.43749C1.59608 8.70089 1.94377 9.9396 2.59921 11.0197C3.25466 12.0997 4.19291 12.9801 5.3125 13.5655V13.8125C5.3125 14.0943 5.42444 14.3645 5.6237 14.5638C5.82296 14.7631 6.09321 14.875 6.375 14.875H10.625C10.9068 14.875 11.177 14.7631 11.3763 14.5638C11.5756 14.3645 11.6875 14.0943 11.6875 13.8125V13.5655C12.8071 12.9801 13.7453 12.0997 14.4008 11.0197C15.0562 9.9396 15.4039 8.70089 15.4062 7.43749C15.4062 7.2966 15.3503 7.16147 15.2507 7.06184C15.151 6.96221 15.0159 6.90624 14.875 6.90624ZM11.5202 3.73402C11.6419 3.83363 11.7586 3.93877 11.8701 4.04945C10.4559 4.54693 9.28725 5.56935 8.60625 6.90492H6.64727C6.9793 5.97419 7.59059 5.16866 8.39762 4.59839C9.20465 4.02812 10.1681 3.72092 11.1562 3.71874C11.2778 3.71874 11.3993 3.72472 11.5202 3.73402ZM9.83609 6.90624C10.4802 5.93996 11.4546 5.24178 12.5767 4.94261C12.9436 5.53937 13.1737 6.20997 13.2507 6.90624H9.83609ZM8.5 2.65624C8.92631 2.65653 9.35066 2.71392 9.76172 2.82691C8.7606 3.07525 7.84263 3.5831 7.10034 4.29928C6.35805 5.01546 5.81766 5.91466 5.53363 6.90624H3.7493C3.88108 5.73807 4.43814 4.65924 5.3143 3.87542C6.19045 3.09161 7.32441 2.65764 8.5 2.65624Z" fill="black"/>
</svg>
