<svg width="17" height="16" viewBox="0 0 17 16" fill="none" xmlns="http://www.w3.org/2000/svg">
<path d="M6.06006 1.90372V1.4442L6.45145 1.07659L6.80727 1H10.4188L10.7746 1.18381L11.0059 1.49015V1.84245L10.1875 3.46607H6.87843L6.06006 1.90372Z" fill="black"/>
<path d="M7.4044 4.89549H9.5395C10.8318 4.89549 11.9951 5.67874 12.4812 6.87608C12.603 7.17614 12.6782 7.49307 12.7041 7.81588L13.1502 13.3641C13.158 13.4615 13.1795 13.5572 13.214 13.6486C13.3478 14.0033 13.0857 14.3823 12.7066 14.3823H4.50497C4.01931 14.3823 3.67476 13.9088 3.82422 13.4467C3.85404 13.3545 3.87272 13.2591 3.87989 13.1625L4.27752 7.79913C4.30075 7.48588 4.37091 7.1779 4.48566 6.88551C4.95677 5.68506 6.11483 4.89549 7.4044 4.89549Z" fill="black" stroke="black" stroke-width="0.5"/>
<path d="M6.78941 8.10717C7.46546 7.98974 8.74283 8.14087 8.44395 9.68484C7.72046 9.71037 6.37666 9.43058 6.78941 8.10717Z" stroke="white" stroke-width="0.5"/>
<path d="M6.77758 9.60889C7.45363 9.49146 8.731 9.64259 8.43212 11.1866C7.70863 11.2121 6.36484 10.9323 6.77758 9.60889Z" stroke="white" stroke-width="0.5"/>
<path d="M8.59225 9.65582C9.2683 9.77325 10.5457 9.62212 10.2468 8.07814C9.5233 8.05261 8.1795 8.33241 8.59225 9.65582Z" stroke="white" stroke-width="0.5"/>
<path d="M8.54254 8.60559C9.12973 8.29416 9.94352 7.43308 8.50111 6.48027C7.9521 6.88676 7.19176 7.8809 8.54254 8.60559Z" stroke="white" stroke-width="0.5"/>
<path d="M8.59225 11.1569C9.2683 11.2743 10.5457 11.1232 10.2468 9.57924C9.5233 9.55371 8.1795 9.83351 8.59225 11.1569Z" stroke="white" stroke-width="0.5"/>
<ellipse cx="12.9449" cy="14.0657" rx="1.08523" ry="0.934351" fill="black"/>
<ellipse cx="4.08523" cy="14.0657" rx="1.08523" ry="0.934351" fill="black"/>
<rect x="6.59471" y="3.51695" width="3.87652" height="1.18489" rx="0.592447" fill="black" stroke="white" stroke-width="0.5"/>
<rect x="8.23058" y="11.2013" width="0.533722" height="1.16411" rx="0.266861" fill="white"/>
</svg>
