<svg width="17" height="17" viewBox="0 0 17 17" fill="none" xmlns="http://www.w3.org/2000/svg">
<path d="M1.0625 11.6875H15.9375V12.75H1.0625V11.6875Z" fill="black"/>
<path d="M1.0625 13.8125H15.9375V14.875H1.0625V13.8125Z" fill="black"/>
<path d="M12.75 5.3125C12.5399 5.3125 12.3344 5.37481 12.1597 5.49156C11.985 5.60831 11.8488 5.77425 11.7684 5.9684C11.688 6.16255 11.6669 6.37618 11.7079 6.58228C11.7489 6.78839 11.8501 6.97771 11.9987 7.1263C12.1473 7.27489 12.3366 7.37609 12.5427 7.41708C12.7488 7.45808 12.9625 7.43704 13.1566 7.35662C13.3507 7.2762 13.5167 7.14002 13.6334 6.96529C13.7502 6.79057 13.8125 6.58514 13.8125 6.375C13.8125 6.09321 13.7006 5.82296 13.5013 5.6237C13.302 5.42444 13.0318 5.3125 12.75 5.3125Z" fill="black"/>
<path d="M8.5 8.5C8.07972 8.5 7.66887 8.37537 7.31941 8.14187C6.96996 7.90838 6.69759 7.5765 6.53676 7.1882C6.37592 6.79991 6.33384 6.37264 6.41583 5.96043C6.49783 5.54822 6.70021 5.16959 6.9974 4.8724C7.29459 4.57521 7.67322 4.37283 8.08543 4.29083C8.49764 4.20884 8.92491 4.25092 9.3132 4.41176C9.7015 4.57259 10.0334 4.84496 10.2669 5.19441C10.5004 5.54387 10.625 5.95472 10.625 6.375C10.6243 6.93837 10.4002 7.47846 10.0018 7.87683C9.60346 8.27519 9.06337 8.4993 8.5 8.5ZM8.5 5.3125C8.28986 5.3125 8.08444 5.37482 7.90971 5.49156C7.73498 5.60831 7.5988 5.77425 7.51838 5.9684C7.43796 6.16255 7.41692 6.37618 7.45792 6.58228C7.49891 6.78839 7.60011 6.97771 7.7487 7.1263C7.89729 7.2749 8.08661 7.37609 8.29272 7.41709C8.49882 7.45808 8.71246 7.43704 8.9066 7.35662C9.10075 7.27621 9.26669 7.14002 9.38344 6.96529C9.50019 6.79057 9.5625 6.58514 9.5625 6.375C9.56222 6.0933 9.45019 5.82321 9.25099 5.62401C9.0518 5.42481 8.78171 5.31278 8.5 5.3125Z" fill="black"/>
<path d="M4.25 5.3125C4.03986 5.3125 3.83443 5.37481 3.65971 5.49156C3.48498 5.60831 3.3488 5.77425 3.26838 5.9684C3.18796 6.16255 3.16692 6.37618 3.20792 6.58228C3.24891 6.78839 3.35011 6.97771 3.4987 7.1263C3.64729 7.27489 3.83661 7.37609 4.04272 7.41708C4.24882 7.45808 4.46246 7.43704 4.6566 7.35662C4.85075 7.2762 5.01669 7.14002 5.13344 6.96529C5.25019 6.79057 5.3125 6.58514 5.3125 6.375C5.3125 6.09321 5.20056 5.82296 5.0013 5.6237C4.80204 5.42444 4.53179 5.3125 4.25 5.3125Z" fill="black"/>
<path d="M14.875 10.625H2.125C1.84342 10.6243 1.57358 10.5121 1.37447 10.313C1.17537 10.1139 1.0632 9.84408 1.0625 9.5625V3.1875C1.0632 2.90592 1.17537 2.63608 1.37447 2.43697C1.57358 2.23787 1.84342 2.1257 2.125 2.125H14.875C15.1566 2.1257 15.4264 2.23787 15.6255 2.43697C15.8246 2.63608 15.9368 2.90592 15.9375 3.1875V9.5625C15.9371 9.84416 15.825 10.1142 15.6258 10.3133C15.4267 10.5125 15.1567 10.6246 14.875 10.625ZM14.875 3.1875H2.125V9.5625H14.875V3.1875Z" fill="black"/>
</svg>
